<?xml version="1.0" standalone="no"?>
<!DOCTYPE svg PUBLIC "-//W3C//DTD SVG 20010904//EN"
 "http://www.w3.org/TR/2001/REC-SVG-20010904/DTD/svg10.dtd">
<svg version="1.0" xmlns="http://www.w3.org/2000/svg"
 width="1179.000000pt" height="1179.000000pt" viewBox="0 0 1179.000000 1179.000000"
 preserveAspectRatio="xMidYMid meet">
<metadata>
Created by potrace 1.14, written by Peter Selinger 2001-2017
</metadata>
<g transform="translate(0.000000,1179.000000) scale(0.100000,-0.100000)"
fill="#000000" stroke="none">
<path d="M5658 11786 c-1 -2 -39 -6 -83 -10 -44 -3 -91 -8 -105 -11 -14 -2
-68 -11 -120 -20 -484 -82 -986 -310 -1388 -631 -128 -102 -377 -352 -482
-484 -367 -462 -599 -1031 -657 -1615 -4 -44 -8 -1554 -8 -3357 l0 -3276 30
-43 c35 -50 -77 9 1297 -682 466 -235 855 -431 865 -436 10 -5 72 -36 138 -69
66 -33 374 -188 685 -345 1586 -799 1591 -801 1639 -803 90 -4 172 54 190 135
7 30 10 416 10 1116 0 589 0 1078 0 1087 1 16 41 18 590 20 l589 3 38 31 c21
16 47 43 58 58 l21 27 0 3227 c0 2868 -3 3311 -20 3412 -76 452 -172 744 -356
1076 -210 378 -512 725 -859 986 -427 321 -964 533 -1500 592 -105 12 -561 21
-572 12z m522 -390 c19 -3 58 -8 85 -12 460 -55 979 -286 1355 -603 150 -125
365 -358 461 -496 19 -27 36 -52 39 -55 25 -25 152 -246 205 -357 107 -225
198 -515 230 -728 6 -41 10 -72 22 -140 3 -22 8 -1441 10 -3152 l3 -3113 -460
0 -460 0 0 28 c-1 15 -2 889 -4 1942 -2 1053 -6 1942 -9 1975 -4 33 -9 83 -12
111 -2 28 -7 69 -10 90 -3 22 -8 55 -10 74 -8 58 -16 111 -21 134 -5 24 -24
130 -30 166 -17 96 -106 425 -154 570 -125 377 -327 826 -487 1082 -13 21 -23
40 -23 43 0 6 -82 134 -163 255 -49 72 -195 272 -233 320 -166 203 -354 401
-514 541 -46 41 -91 80 -98 86 -48 45 -239 183 -252 183 -6 0 -10 3 -10 8 0 4
-26 23 -57 41 -32 19 -60 37 -63 40 -19 22 -274 148 -400 198 -170 68 -340
112 -515 133 -69 8 -351 6 -390 -3 -50 -11 -95 -17 -95 -13 0 20 282 223 425
306 279 161 655 295 917 326 29 4 56 8 59 10 3 2 44 6 90 10 46 3 86 8 88 10
6 6 441 -3 481 -10z m493 -6042 c210 -59 370 -241 403 -459 27 -173 -35 -356
-160 -481 -25 -24 -133 -105 -141 -104 -3 0 -18 -6 -33 -14 -51 -26 -162 -45
-246 -41 -228 8 -428 158 -508 381 -28 78 -34 226 -12 309 17 64 57 155 83
189 48 63 143 145 206 178 69 36 91 43 165 55 19 3 36 6 38 8 9 8 151 -6 205
-21z"/>
</g>
</svg>
